# xmcd
#
# Track frame offsets:
#   200
#   19677
#   41825
#   57275
#   67765
#   81500
#   108330
#   120485
#   131920
#   146755
#   167852
#   181902
#   196207
#   210592
#
# Disc length: 3065 seconds
#
# Revision: 5
# Processed by: cddbd v1.5.1PL0 Copyright (c) Steve Scherf et al.
# Submitted via: Media_Universe 3.0
#
DISCID=c80bf70e
DTITLE=Chinga Chavin - Country Porn
DYEAR=1900
DGENRE=Country
TTITLE0=Talkin' Matamoros First Piece O' Ass Blues
TTITLE1=Asshole from El Paso
TTITLE2=Cum Stains On The Pillow
TTITLE3=Head Boogie
TTITLE4=Sit, Sit, Sit (Sit On My Face)
TTITLE5=Dry Humping In The Back Of A Fifty-Five Ford
TTITLE6=Get it on the Run
TTITLE7=Tit Stop Rock
TTITLE8=4:00 A.M. Jump
TTITLE9=Cum Unto Jesus (A Sacred Tune)
TTITLE10=Bennies An' Beer
TTITLE11=No Sell-Out Too Small
TTITLE12=Jail Bait
TTITLE13=Scum Floats
EXTD=
EXTT0=
EXTT1=
EXTT2=
EXTT3=
EXTT4=
EXTT5=
EXTT6=
EXTT7=
EXTT8=
EXTT9=
EXTT10=
EXTT11=
EXTT12=
EXTT13=
PLAYORDER=
